<svg xmlns="http://www.w3.org/2000/svg" viewBox="0 0 32 32" width="32" height="32">
  <rect width="32" height="32" rx="7" fill="#F4A259"/>
  <!-- ears -->
  <path d="M7 8 C4 11 4 17 7 19 L11 13 Z" fill="#8C5A2B"/>
  <path d="M25 8 C28 11 28 17 25 19 L21 13 Z" fill="#8C5A2B"/>
  <!-- head -->
  <path d="M16 8 C22 8 25 12 25 18 C25 24 21 27 16 27 C11 27 7 24 7 18 C7 12 10 8 16 8 Z" fill="#E9C46A"/>
  <!-- muzzle -->
  <ellipse cx="16" cy="21" rx="6" ry="4.5" fill="#FAF3DD"/>
  <!-- eyes -->
  <circle cx="12.5" cy="15.5" r="1.8" fill="#3A2A1A"/>
  <circle cx="19.5" cy="15.5" r="1.8" fill="#3A2A1A"/>
  <!-- nose -->
  <ellipse cx="16" cy="19" rx="2.2" ry="1.7" fill="#3A2A1A"/>
  <!-- mouth -->
  <path d="M16 20.5 L16 23 M16 23 C14.5 23 13.5 22 13.5 22 M16 23 C17.5 23 18.5 22 18.5 22"
        stroke="#3A2A1A" stroke-width="1" fill="none" stroke-linecap="round"/>
</svg>
